<svg width="55" height="56" viewBox="0 0 55 56" fill="none" xmlns="http://www.w3.org/2000/svg">
<g filter="url(#filter0_d_6_56)">
<path d="M27.5626 0L27.4374 0C12.2841 0 0 12.2878 0 27.4455L0 27.5707C0 42.7285 12.2841 55.0162 27.4374 55.0162H27.5626C42.7158 55.0162 55 42.7285 55 27.5707V27.4455C55 12.2878 42.7158 0 27.5626 0Z" fill="#5C80B1"/>
<path d="M41.2631 14.8783C38.7311 13.7161 36.018 12.8603 33.1797 12.3707C33.1277 12.361 33.0756 12.3842 33.0506 12.4324C32.7018 13.053 32.3145 13.8645 32.0447 14.5006C28.9925 14.0437 25.9557 14.0437 22.9651 14.5006C22.6934 13.8491 22.2926 13.053 21.9419 12.4324C21.9149 12.3861 21.8629 12.363 21.8128 12.3707C18.9764 12.8603 16.2614 13.7161 13.7294 14.8783C13.7082 14.888 13.6889 14.9034 13.6754 14.9246C8.52671 22.6191 7.11617 30.1247 7.80793 37.5379C7.81178 37.5745 7.83106 37.6092 7.85996 37.6304C11.2571 40.1265 14.5483 41.6415 17.7778 42.6457C17.8299 42.6611 17.8838 42.6418 17.9166 42.5994C18.6796 41.5567 19.3618 40.4561 19.9456 39.2977C19.9803 39.2302 19.9456 39.1492 19.8762 39.1222C18.7952 38.7117 17.7682 38.2125 16.7777 37.6458C16.6987 37.5995 16.693 37.4877 16.7643 37.4338C16.9724 37.2776 17.1805 37.1157 17.379 36.9519C17.4156 36.9211 17.4657 36.9153 17.5081 36.9346C24.0075 39.9029 31.0447 39.9029 37.4671 36.9346C37.5095 36.9134 37.5596 36.9211 37.5962 36.95C37.7946 37.1138 38.0027 37.2776 38.2128 37.4338C38.2841 37.4877 38.2802 37.5995 38.2012 37.6458C37.2127 38.224 36.1837 38.7136 35.1008 39.1222C35.0295 39.1492 34.9987 39.2302 35.0334 39.2996C35.6307 40.4541 36.3109 41.5547 37.0605 42.5994C37.0913 42.6438 37.1472 42.663 37.1992 42.6476C40.4441 41.6434 43.7353 40.1284 47.1325 37.6323C47.1614 37.6111 47.1807 37.5764 47.1845 37.5417C48.0131 28.9721 45.7971 21.5282 41.3132 14.9285C41.3016 14.9073 41.2843 14.8899 41.2612 14.8803L41.2631 14.8783ZM20.9129 33.0237C18.9552 33.0237 17.3443 31.2273 17.3443 29.0203C17.3443 26.8133 18.9262 25.0169 20.9129 25.0169C22.8996 25.0169 24.5143 26.8307 24.4816 29.0203C24.4816 31.2273 22.8996 33.0237 20.9129 33.0237ZM34.1104 33.0237C32.1526 33.0237 30.5417 31.2273 30.5417 29.0203C30.5417 26.8133 32.1237 25.0169 34.1104 25.0169C36.097 25.0169 37.7118 26.8307 37.679 29.0203C37.679 31.2273 36.1144 33.0237 34.1104 33.0237Z" fill="white"/>
</g>
<defs>
<filter id="filter0_d_6_56" x="-4" y="0" width="63" height="63.0162" filterUnits="userSpaceOnUse" color-interpolation-filters="sRGB">
<feFlood flood-opacity="0" result="BackgroundImageFix"/>
<feColorMatrix in="SourceAlpha" type="matrix" values="0 0 0 0 0 0 0 0 0 0 0 0 0 0 0 0 0 0 127 0" result="hardAlpha"/>
<feOffset dy="4"/>
<feGaussianBlur stdDeviation="2"/>
<feComposite in2="hardAlpha" operator="out"/>
<feColorMatrix type="matrix" values="0 0 0 0 0 0 0 0 0 0 0 0 0 0 0 0 0 0 0.25 0"/>
<feBlend mode="normal" in2="BackgroundImageFix" result="effect1_dropShadow_6_56"/>
<feBlend mode="normal" in="SourceGraphic" in2="effect1_dropShadow_6_56" result="shape"/>
</filter>
</defs>
</svg>
