<svg width="35" height="33" viewBox="0 0 35 33" fill="none" xmlns="http://www.w3.org/2000/svg">
<path d="M25.5451 0L8.52661 0C3.82493 0 0 3.82606 0 8.52912L0 24.1032C0 28.8063 3.82493 32.6323 8.52661 32.6323H25.5451C30.2468 32.6323 34.0718 28.8063 34.0718 24.1032V8.52912C34.0718 3.82606 30.2468 0 25.5451 0ZM3.00792 8.52912C3.00792 5.48562 5.48401 3.0088 8.52661 3.0088L25.5451 3.0088C28.5878 3.0088 31.0638 5.48562 31.0638 8.52912L31.0638 24.1032C31.0638 27.1467 28.5878 29.6235 25.5451 29.6235L8.52661 29.6235C5.48401 29.6235 3.00792 27.1467 3.00792 24.1032L3.00792 8.52912Z" fill="white"/>
<path d="M17.036 24.2477C21.4082 24.2477 24.9672 20.6895 24.9672 16.3141C24.9672 11.9387 21.4101 8.38062 17.036 8.38062C12.6619 8.38062 9.1048 11.9387 9.1048 16.3141C9.1048 20.6895 12.6619 24.2477 17.036 24.2477ZM17.036 11.3913C19.751 11.3913 21.9593 13.6002 21.9593 16.3161C21.9593 19.0319 19.751 21.2408 17.036 21.2408C14.321 21.2408 12.1127 19.0319 12.1127 16.3161C12.1127 13.6002 14.321 11.3913 17.036 11.3913Z" fill="white"/>
<path d="M25.7013 9.66244C26.8787 9.66244 27.8383 8.70447 27.8383 7.52485C27.8383 6.34523 26.8806 5.38727 25.7013 5.38727C24.5221 5.38727 23.5644 6.34523 23.5644 7.52485C23.5644 8.70447 24.5221 9.66244 25.7013 9.66244Z" fill="white"/>
</svg>
