<svg width="295" height="61" viewBox="0 0 295 61" fill="none" xmlns="http://www.w3.org/2000/svg">
<path d="M0.146454 -0.635024C-0.277177 -0.673866 -0.698888 -0.54283 -1.02591 -0.270743C-1.35292 0.00134444 -1.55846 0.392195 -1.5973 0.815826C-1.63615 1.23946 -1.50511 1.66117 -1.23302 1.98819C-0.960936 2.3152 -0.570085 2.52074 -0.146454 2.55958C-0.146454 2.55958 -0.146454 2.55958 -0.146454 2.55958C-0.296395 2.53153 -0.0878641 2.57764 0.0754852 2.67468C0.255374 2.77107 0.45509 2.89852 0.665556 3.0463C1.08195 3.33927 1.50851 3.68716 1.92845 4.0527C6.44232 8.15278 10.4278 13.2494 14.29 18.2473C14.4107 18.4054 14.5314 18.5653 14.652 18.7272C17.4268 22.4033 19.0926 26.8148 21.6488 31.0233C21.7616 31.2091 21.873 31.3909 21.9881 31.5765C24.6442 35.9051 26.8782 40.5701 28.0977 45.2701C28.1285 45.3929 28.161 45.5253 28.1893 45.6472L28.2498 45.8362C29.5462 49.9953 30.3994 54.1577 31.7485 58.539C31.907 59.0398 32.0759 59.5449 32.26 60.0543C32.2652 60.0686 32.2707 60.0828 32.2766 60.0968L32.2803 60.1072C32.4142 60.4216 32.7432 60.6726 33.2867 60.8841C33.5592 60.9897 33.8837 61.0865 34.2855 61.1955C34.4881 61.2511 34.7068 61.3104 34.9833 61.4004C35.1251 61.4475 35.278 61.5051 35.4998 61.5878C35.7129 61.6595 36.0824 61.8328 36.5666 61.754C36.6857 61.4893 36.7994 61.2448 36.8831 61.0675C36.967 60.8865 37.0151 60.765 37.0215 60.6377C37.0279 60.5104 36.9922 60.3847 36.9269 60.1962C36.8614 60.0113 36.7727 59.7567 36.6807 59.4814C36.6807 59.4814 36.6807 59.4814 36.6807 59.4814C37.0797 59.3985 37.3757 59.5206 37.529 59.5334C37.6916 59.5572 37.7948 59.5462 37.8907 59.5226C38.0774 59.4726 38.2195 59.3797 38.3509 59.2843C38.6106 59.0898 38.8086 58.8714 38.9593 58.6666C39.2589 58.2522 39.3571 57.87 39.2598 57.5537L39.2636 57.5641C39.2599 57.5517 39.2558 57.5394 39.2514 57.5273C39.0945 57.0931 38.9373 56.6488 38.7786 56.1973C37.405 52.1918 35.7849 47.8999 34.0893 43.7578L34.1498 43.9468C34.1015 43.8 34.0489 43.6419 33.9991 43.4968C32.0925 38.0605 29.3322 33.2426 26.0452 28.8104C25.9229 28.6476 25.8037 28.488 25.6826 28.3242C22.9593 24.6645 20.2268 20.6314 17.2106 16.7824C17.0854 16.6209 16.9616 16.4601 16.8394 16.3C12.8964 11.2128 8.97933 6.13682 4.03571 1.63386C3.55889 1.21954 3.0666 0.813972 2.50947 0.421173C1.89369 0.0413996 1.50576 -0.402689 0.146454 -0.635024Z" fill="white"/>
<path d="M34.1364 57.3998C34.5589 57.7605 35.1074 57.9386 35.6613 57.895C36.2151 57.8513 36.7289 57.5894 37.0897 57.1669C37.4504 56.7444 37.6285 56.1959 37.5849 55.6421C37.5412 55.0883 37.2793 54.5745 36.8568 54.2137C36.8568 54.2137 36.8568 54.2137 36.8568 54.2137C36.7904 54.1582 36.7178 54.0904 36.5403 53.9587C36.4284 53.8884 36.3826 53.8103 35.9241 53.6229C35.7996 53.5796 35.6278 53.5156 35.3073 53.4913C35.0101 53.4656 34.3842 53.5167 33.8528 53.9375C33.3284 54.3565 33.1761 54.8177 33.1049 55.0638C33.0349 55.3317 33.032 55.4787 33.0276 55.6078C33.0276 55.6081 33.0275 55.6083 33.0275 55.6085C33.0251 55.7457 33.0269 55.8802 33.0321 56.0109C33.1854 58.171 33.8502 59.9082 33.6607 60.3315C33.7105 60.0695 33.7157 59.7796 34.1411 59.2181C34.5067 58.6957 35.4419 58.3711 35.8072 58.4081C36.667 58.4454 36.7421 58.6195 36.9176 58.6853C37.1725 58.8361 37.2109 58.8888 37.2723 58.9392C37.4833 59.1457 37.4607 59.1181 37.5627 59.2676C37.6052 59.3435 37.6671 59.4393 37.7235 59.7046C37.7658 59.9369 37.8549 60.5607 37.3586 61.2691C36.884 61.8636 36.6499 61.8633 36.5663 61.921C36.3861 61.985 36.5827 61.9257 36.8105 61.8771C37.0613 61.8056 37.3854 61.7781 38.0358 61.3995C38.2043 61.295 38.3643 61.1726 38.5081 61.0387C38.8119 60.7566 39.0352 60.4313 39.1879 60.1165C39.2645 59.9589 39.3252 59.8018 39.373 59.6467C39.3972 59.5684 39.4186 59.4885 39.4359 59.414C39.4433 59.3823 39.4571 59.3181 39.4486 59.3548C39.4456 59.3673 39.4457 59.3684 39.4328 59.4183C39.4246 59.4487 39.4148 59.4882 39.3851 59.5766C39.3774 59.5991 39.3682 59.6252 39.356 59.6569C39.3495 59.6727 39.3482 59.6821 39.3024 59.7852C39.2589 59.8764 39.2087 59.9958 39.0488 60.2149C38.8769 60.4057 38.6199 60.8713 37.6239 61.1077C37.1402 61.2115 36.5239 61.112 36.1164 60.8885C35.6993 60.669 35.4692 60.4072 35.3235 60.2153C35.0699 59.8613 35.0249 59.6778 34.9738 59.5368C34.8918 59.268 34.8906 59.1784 34.8786 59.1C34.8697 59.0209 34.8694 59.0029 34.8682 58.9878C34.866 58.9554 34.8651 58.934 34.8645 58.9173C34.8633 58.8832 34.8633 58.8729 34.8632 58.8661C34.8631 58.8388 34.8634 58.8492 34.8635 58.8545C34.8654 58.8943 34.8663 58.8954 34.8657 58.914C34.8839 59.0067 34.766 58.9081 35.1963 58.4743C35.2981 58.3854 35.3865 58.333 35.4521 58.2997C35.6658 58.2019 35.6549 58.2251 35.6323 58.205C35.6117 58.1961 35.544 58.1532 35.6659 58.1938C35.6747 58.1972 35.684 58.2011 35.6938 58.2055C35.8176 58.2558 36.1046 58.4439 36.2779 58.7785C36.4555 59.1101 36.456 59.4449 36.4209 59.6166C36.4198 59.6221 36.4188 59.6275 36.4177 59.6328C36.3603 59.8662 36.3468 59.8025 36.4415 59.6737C36.5174 59.5604 36.6464 59.3924 36.8036 59.1915C37.191 58.6954 37.3654 58.0658 37.2885 57.4412C37.2116 56.8165 36.8897 56.248 36.3936 55.8607C35.8975 55.4733 35.2679 55.2989 34.6432 55.3758C34.0186 55.4527 33.4501 55.7746 33.0627 56.2707C33.0627 56.2707 33.0627 56.2707 33.0627 56.2707C32.9052 56.4735 32.718 56.7083 32.507 57.0195C32.2669 57.3902 31.9465 57.8621 31.7662 58.6898C31.7624 58.7086 31.7587 58.7276 31.7552 58.7466C31.6305 59.3893 31.6763 60.2305 32.0808 60.9888C32.4774 61.7526 33.1572 62.2614 33.7177 62.5099C33.7602 62.5292 33.8028 62.5477 33.8455 62.5653C35.1715 63.0119 36.0349 63.0586 37.5348 62.4226C37.7645 62.3065 38.0082 62.1534 38.248 61.9432C39.2956 60.9569 39.3994 60.0058 39.4884 59.2985C39.5019 59.1493 39.5091 58.9818 39.5104 58.8545C39.5105 58.8451 39.5108 58.8447 39.5105 58.8041C39.5104 58.7948 39.5104 58.7807 39.5091 58.7433C39.5084 58.7249 39.5075 58.7021 39.5052 58.6684C39.5039 58.6528 39.5036 58.634 39.4945 58.5536C39.4824 58.4742 39.481 58.3838 39.3989 58.1145C39.3477 57.9733 39.3026 57.7896 39.0489 57.4355C38.9032 57.2435 38.673 56.9816 38.2558 56.762C37.8483 56.5386 37.2319 56.439 36.7481 56.5428C35.752 56.7793 35.4949 57.245 35.3229 57.4359C35.1628 57.6553 35.1125 57.7749 35.0688 57.8664C35.0228 57.9701 35.0215 57.9796 35.0149 57.9955C35.0026 58.0275 34.9933 58.0538 34.9855 58.0766C34.9554 58.1661 34.9452 58.2073 34.9364 58.2395C34.9226 58.2931 34.9223 58.2961 34.9185 58.3121C34.9043 58.3741 34.913 58.3336 34.9142 58.3276C34.9198 58.302 34.9275 58.2712 34.9363 58.2416C34.9538 58.1826 34.9766 58.1206 35.0084 58.054C35.0711 57.9216 35.1749 57.7637 35.3298 57.6199C35.4028 57.5519 35.4856 57.4886 35.5718 57.4352C35.8913 57.2574 35.8348 57.3262 35.7124 57.3473C35.5662 57.3912 35.3812 57.4013 34.8401 57.6049C34.603 57.7253 34.2112 57.8028 33.6347 58.5326C33.0599 59.3467 33.1428 60.1118 33.2067 60.4694C33.2853 60.8628 33.3944 61.08 33.4939 61.2722C33.7121 61.6527 33.8403 61.8408 34.2389 62.226C34.3379 62.3108 34.4139 62.3952 34.7131 62.5716C34.9118 62.6502 35.0092 62.8352 35.895 62.8728C36.2718 62.91 37.2212 62.5799 37.5939 62.048C38.0278 61.4755 38.0356 61.1756 38.0876 60.899C38.1781 58.1025 37.1938 56.8647 37.2191 55.8307C37.2164 55.7784 37.2155 55.7291 37.2163 55.6835C37.2163 55.6835 37.2163 55.6834 37.2163 55.6833C37.2123 55.7909 37.2113 55.9183 37.1467 56.1661C37.0807 56.3927 36.9377 56.8345 36.4297 57.2407C35.9146 57.6485 35.3104 57.696 35.0333 57.6717C34.7331 57.6487 34.582 57.5906 34.4762 57.5542C34.0948 57.3966 34.1168 57.3659 34.0714 57.3434C34.0262 57.309 34.0778 57.3489 34.1364 57.3998Z" fill="white"/>
<path d="M36.3308 59.4189C36.2681 59.7954 36.3575 60.1814 36.5794 60.492C36.8013 60.8026 37.1375 61.0123 37.514 61.0751C37.8905 61.1378 38.2765 61.0484 38.5871 60.8265C38.8977 60.6046 39.1074 60.2684 39.1701 59.8919C39.1701 59.8919 39.1701 59.8919 39.1701 59.8919C39.3529 58.9495 39.721 57.7402 40.058 56.649C40.7305 54.5004 41.4835 52.3605 42.2833 50.2386C42.3199 50.1416 42.3576 50.0398 42.3928 49.9435C43.5364 46.6315 45.0365 43.6986 46.5655 40.7351C46.6448 40.5801 46.726 40.4218 46.8068 40.2649C49.7103 34.7547 53.6002 29.4972 57.4473 24.2419L57.401 24.3068C57.5251 24.1492 57.6494 23.9919 57.7738 23.835C62.2463 18.2037 67.2141 12.9873 72.0255 7.77296L71.9851 7.81612C72.0406 7.75812 72.0957 7.70052 72.1505 7.6433C73.0207 6.73397 73.7346 5.68303 74.3176 4.46253C74.8501 3.34562 75.276 2.08361 75.5761 0.673038C75.619 0.463125 75.6501 0.25127 75.6311 0.0508766C75.6119 -0.149757 75.542 -0.324735 75.4178 -0.455616C75.2937 -0.586498 75.1226 -0.665471 74.9233 -0.695215C74.7242 -0.724719 74.511 -0.704798 74.2991 -0.673038C74.2991 -0.673038 74.2991 -0.673038 74.2991 -0.673038C72.8759 -0.449124 71.5794 -0.0753465 70.4138 0.467775C69.1411 1.05996 68.0302 1.84962 67.1064 2.81506C67.0483 2.87582 66.9899 2.93707 66.9312 2.99883L66.8907 3.04199C61.8684 8.52585 57.6871 14.6323 53.5012 20.6698C53.3846 20.8381 53.2681 21.0067 53.1517 21.1756L53.1053 21.2405C49.5785 26.7741 45.8151 32.2018 43.028 38.4903C42.9505 38.6704 42.8743 38.8537 42.8018 39.0348C41.4817 42.282 40.772 45.8177 39.6892 48.9556C39.6569 49.044 39.6228 49.136 39.5902 49.2223C38.7735 51.3895 38.0057 53.5701 37.3103 55.7915C36.9536 56.9652 36.6028 58.0354 36.3308 59.4189Z" fill="white"/>
<path d="M66.0532 45.1505C66.5444 44.817 66.8831 44.302 66.9946 43.7188C67.1061 43.1356 66.9814 42.532 66.6478 42.0408C66.3143 41.5495 65.7993 41.2109 65.2161 41.0994C64.6329 40.9879 64.0293 41.1126 63.5381 41.4461C63.5381 41.4461 63.5381 41.4461 63.5381 41.4461C62.6578 42.1211 62.5964 42.5072 62.3952 42.8514C62.2338 43.1906 62.1313 43.4832 62.0444 43.7563C61.1201 47.2346 61.1482 50.205 61.753 53.5252C61.8257 53.8755 61.9328 54.2196 62.0688 54.5456C63.1109 56.9427 64.9774 58.251 66.3399 59.2207C66.6519 59.4135 66.9529 59.567 67.2409 59.6966C68.9338 60.4262 70.2878 60.7362 71.591 61.0185L72.3292 61.01C72.4632 61.0044 72.5971 60.9959 72.7315 60.9844C74.4888 60.8483 76.2447 60.2222 77.5255 59.3905L77.675 59.2897C77.6791 59.2869 77.6831 59.284 77.6871 59.2811C78.1335 58.9683 78.6829 58.4539 79.0718 57.874C79.4993 57.247 79.7511 56.5762 79.856 55.9393C79.8814 55.2226 79.8355 54.4936 79.5989 53.8362C79.362 53.1787 78.9526 52.6459 78.4002 52.3193C77.8479 51.9926 77.1838 51.8906 76.4935 51.9998C75.8034 52.1091 75.1425 52.42 74.5267 52.7876C74.5267 52.7876 74.5267 52.7876 74.5267 52.7876C74.1874 52.9021 73.9327 52.9473 73.7668 52.9604C73.6074 52.9758 73.5298 52.9791 73.3159 53.1326C73.314 53.134 73.3121 53.1354 73.3101 53.1368L73.4596 53.036C72.7384 53.4955 72.264 53.8594 71.6551 54.0805C71.608 54.0973 71.5603 54.1137 71.5115 54.1299L72.2497 54.1214C71.0452 54.1502 69.8597 54.2312 69.1485 54.1616C69.0341 54.1523 68.9376 54.1457 68.8689 54.1487C67.4722 53.7658 66.4129 53.3685 66.202 52.8236C66.1726 52.753 66.1516 52.6849 66.1367 52.6134C65.656 50.2378 65.7147 47.2413 66.3145 45.1033C66.3571 44.9666 66.4066 44.8402 66.4329 44.7869C66.4441 44.7622 66.453 44.7528 66.4244 44.7959C66.3918 44.8336 66.346 44.9416 66.0532 45.1505Z" fill="white"/>
<path d="M66.0523 31.7521C66.0523 32.3154 66.2761 32.8557 66.6744 33.254C67.0727 33.6523 67.613 33.8761 68.1763 33.8761C68.7396 33.8761 69.2799 33.6523 69.6782 33.254C70.0766 32.8557 70.3003 32.3154 70.3003 31.7521C70.3004 31.7019 70.3004 31.6021 70.2952 31.4961C70.2726 31.0779 70.2058 30.7936 70.152 30.5536C70.1517 30.552 70.1513 30.5504 70.1509 30.5488C70.0895 30.2878 69.7017 30.1182 69.3002 29.9634C69.0985 29.8849 68.895 29.8118 68.7124 29.7166C68.6202 29.6683 68.5345 29.6147 68.4411 29.5399C68.3371 29.4662 68.2785 29.3626 67.9827 29.1946C67.9751 29.1908 67.9673 29.187 67.9593 29.1832C67.6901 29.0286 67.2268 29.1179 67.0796 29.2363C66.9046 29.3489 66.8402 29.4377 66.781 29.5095C66.672 29.6527 66.623 29.7523 66.5735 29.8484C66.4802 30.037 66.4178 30.1962 66.3561 30.3512C66.3365 30.4007 66.3175 30.4493 66.2989 30.4969C66.2212 30.696 66.2258 30.9177 66.3116 31.1134C66.3974 31.3091 66.5574 31.4627 66.7564 31.5404C66.9555 31.6181 67.1773 31.6136 67.3729 31.5278C67.5686 31.442 67.7222 31.2819 67.7999 31.0829C67.7999 31.0829 67.7999 31.0829 67.7999 31.0829C67.8185 31.0352 67.8368 30.9885 67.8548 30.9429C67.9104 30.802 67.9663 30.6659 68.0146 30.5692C68.0367 30.5233 68.0641 30.4825 68.0523 30.4995C68.0421 30.509 68.032 30.538 67.9249 30.6081C67.8436 30.6836 67.4688 30.7584 67.2721 30.6406C67.2664 30.6379 67.2608 30.6352 67.2554 30.6325C67.0513 30.5131 67.0576 30.494 67.0108 30.5035C66.9744 30.5136 66.9372 30.5507 66.8895 30.5946C66.7955 30.6841 66.6651 30.8027 66.5304 30.918C66.2617 31.1505 65.9818 31.3769 66.0141 31.5144C66.0143 31.5152 66.0145 31.5161 66.0147 31.5169C66.0463 31.6477 66.0562 31.7389 66.0521 31.7014C66.0519 31.6976 66.0524 31.7 66.0523 31.7521Z" fill="white"/>
<path d="M95.2214 37.1329C95.6277 37.1329 96.0174 36.9715 96.3047 36.6842C96.592 36.3969 96.7534 36.0072 96.7534 35.6009C96.7534 35.1946 96.592 34.8049 96.3047 34.5176C96.0174 34.2303 95.6277 34.0689 95.2214 34.0689C94.3334 34.0681 93.4303 34.0745 92.5373 34.09C91.1285 34.114 89.7228 34.1566 88.3194 34.2105C88.1614 34.2166 88.0102 34.2178 87.8513 34.2154C85.8604 34.1693 83.5633 34.5646 81.8727 35.7796C81.6673 35.9241 81.4683 36.0738 81.2766 36.226C78.1989 38.8354 77.5801 42.4776 77.1078 45.4048C77.1061 45.418 77.1046 45.4312 77.103 45.4443C76.6981 48.5063 78.0314 51.517 79.5877 53.4126C79.7758 53.6418 79.96 53.8411 80.1405 54.0224C82.0597 55.846 83.6462 56.6069 85.2317 57.5296C85.4835 57.6668 85.7468 57.79 85.9935 57.8913C94.0184 59.8666 98.0041 56.9752 102.924 54.9484C102.97 54.9252 103.016 54.902 103.062 54.8787L103.196 54.8057C104.251 54.2149 105.403 53.4733 106.504 52.3365C106.857 51.97 107.198 51.5642 107.506 51.1306C107.542 51.079 107.578 51.0271 107.614 50.9749L107.767 50.7334C108.236 49.9345 108.511 49.1563 108.666 48.6564C108.981 47.6392 108.935 46.5278 108.49 45.5478C108.046 44.5679 107.246 43.8027 106.256 43.4165C105.267 43.0303 104.16 43.0511 103.169 43.4705C102.178 43.8898 101.391 44.6761 100.934 45.6378C100.934 45.6378 100.934 45.6378 100.934 45.6378C100.704 46.129 100.583 46.3435 100.509 46.4617L100.662 46.2203C100.655 46.2301 100.648 46.2399 100.641 46.2498C100.582 46.3323 100.516 46.4137 100.43 46.5037C100.174 46.7784 99.6903 47.1467 99.0506 47.5228L99.1845 47.4497C99.1482 47.4694 99.1117 47.489 99.0751 47.5087C97.2113 48.5064 95.2222 49.3886 93.2913 50.0082C91.4546 50.6536 89.1663 50.8581 88.8489 50.6928C88.8379 50.6921 88.8362 50.6945 88.8431 50.7018C87.3967 49.9885 85.8738 49.1509 85.2267 48.6442C85.1745 48.6055 85.1345 48.576 85.1115 48.5647C84.0525 47.5475 83.4051 46.7661 83.2825 45.8278C83.282 45.8237 83.2815 45.8195 83.2811 45.8152C83.199 43.3297 83.551 41.047 84.5776 39.7722C84.6826 39.6482 84.7881 39.5288 84.8949 39.4137C85.7343 38.4919 86.6337 37.4577 87.9758 37.3039C88.1321 37.2888 88.2811 37.2782 88.4372 37.2722C89.8232 37.219 91.2084 37.1771 92.5894 37.1535C93.4667 37.1384 94.3409 37.132 95.2214 37.1329Z" fill="white"/>
<path d="M103.682 4.17877C103.77 3.72811 103.674 3.26114 103.418 2.88059C103.161 2.50003 102.763 2.23707 102.313 2.14955C101.862 2.06202 101.395 2.15711 101.015 2.41388C100.634 2.67066 100.371 3.06809 100.284 3.51874C100.284 3.51874 100.284 3.51874 100.284 3.51874C100.072 4.63457 99.9791 5.67195 99.905 6.714C99.7614 8.85998 99.7492 10.9712 99.7816 13.0755C99.7826 13.1404 99.7836 13.2057 99.7846 13.2713C99.8354 18.935 98.9935 24.6971 98.6945 30.4814C98.6842 30.7142 98.6789 30.9452 98.678 31.1749C98.6858 34.2157 99.1868 36.8036 99.2804 38.9671C99.3057 39.3175 99.3479 39.6611 99.4014 39.9908C100.96 47.0753 104.307 52.0385 108.545 56.9365C108.846 57.2649 109.211 57.5903 109.634 57.8733C110.858 58.7456 112.559 58.8564 112.723 58.8449C112.919 58.8652 113.14 58.8829 113.388 58.8895C114.327 58.9417 115.548 57.9348 116.14 57.1604C116.178 57.1167 116.216 57.0734 116.251 57.0325C116.292 56.986 116.331 56.9414 116.37 56.899C117.457 55.5196 117.568 54.7481 118.044 53.7705C118.135 53.5562 118.139 53.2662 118.089 52.9998C118.037 52.7314 117.936 52.5086 117.772 52.3448C117.609 52.181 117.386 52.0794 117.118 52.0268C116.852 51.9763 116.562 51.9789 116.347 52.0698C116.347 52.0698 116.347 52.0698 116.347 52.0698C115.86 52.282 115.388 52.5177 114.928 52.7205C114.482 52.9137 113.98 53.1064 113.783 52.9434C113.772 52.9335 113.761 52.9205 113.751 52.9046C113.742 52.8905 113.734 52.8742 113.727 52.8558C113.651 52.7006 113.627 52.4027 113.682 52.148C113.732 51.8924 113.835 51.692 113.836 51.6768C113.837 51.6681 113.812 51.6578 113.763 51.6427C112.856 51.5034 113.429 51.4846 113.745 51.7262C113.857 51.8005 113.939 51.8782 113.986 51.9298C110.564 48.1544 107.163 43.0957 106.089 38.7908C106.052 38.6179 106.022 38.453 105.998 38.306C105.608 35.3606 104.635 32.9809 104.384 30.8881C104.363 30.7277 104.345 30.5689 104.33 30.4105C103.857 24.723 103.297 19.0271 103.246 13.221C103.245 13.1533 103.244 13.086 103.243 13.0189C103.211 10.9791 103.225 8.93824 103.359 6.95042C103.425 5.99472 103.519 5.03077 103.682 4.17877Z" fill="white"/>
<path d="M113.741 49.5526C113.741 49.124 113.571 48.7129 113.267 48.4098C112.964 48.1067 112.553 47.9364 112.125 47.9364C111.696 47.9364 111.285 48.1067 110.982 48.4098C110.679 48.7129 110.508 49.124 110.508 49.5526C110.5 49.639 110.531 50.1175 110.656 50.4042C110.844 50.8681 111.034 51.0688 111.185 51.2521C111.198 51.2669 111.211 51.2814 111.224 51.2957C111.792 51.9006 112.142 52.2728 112.5 52.658C112.507 52.6656 112.514 52.6732 112.521 52.6809C113.099 53.3554 114.1 54.1766 114.884 54.6838C114.968 54.7403 115.051 54.7949 115.136 54.8508C115.518 55.1013 115.983 55.1886 116.43 55.0917C116.877 54.9949 117.269 54.7217 117.518 54.3341C117.768 53.9466 117.854 53.4769 117.757 53.0302C117.66 52.5834 117.388 52.1962 117.002 51.9519C116.927 51.9047 116.855 51.8589 116.783 51.8121C116.433 51.5849 116.099 51.3511 115.813 51.1204C115.516 50.8819 115.325 50.6889 114.958 50.3119C114.948 50.3018 114.938 50.2917 114.927 50.2815C114.451 49.8081 113.88 49.4104 113.632 49.1392C113.628 49.135 113.625 49.1312 113.622 49.128C113.584 49.0923 113.593 49.0588 113.676 49.2514C113.731 49.3637 113.746 49.6524 113.741 49.5526Z" fill="white"/>
<path d="M123.602 42.7908C123.212 42.7356 122.816 42.8375 122.501 43.0741C122.187 43.3107 121.979 43.6626 121.924 44.0524C121.869 44.4422 121.971 44.8379 122.207 45.1526C122.444 45.4673 122.796 45.675 123.185 45.7302C123.185 45.7302 123.185 45.7302 123.185 45.7302C124.894 45.9327 126.334 45.8465 127.843 45.7704C128.518 45.7305 129.193 45.6785 129.861 45.6184C130.003 45.6056 130.14 45.5934 130.282 45.5806C134.54 45.1985 137.751 42.1662 139.804 39.1247C139.868 39.03 139.931 38.9352 139.992 38.8412C140.906 37.5273 140.696 35.649 140.176 34.6114C139.668 33.4989 138.995 32.7057 138.292 31.9929C138.26 31.9611 138.228 31.9298 138.195 31.8989C136.484 30.3622 134.747 30.0352 133.25 29.5943C133.235 29.5904 133.221 29.5864 133.206 29.5825C128.371 28.2879 124.236 31.0492 121.147 32.9316C121.044 32.995 120.942 33.0579 120.84 33.1201C117.255 35.3202 115.907 39.2231 114.965 42.3535C114.94 42.4352 114.916 42.5167 114.894 42.5978C113.973 45.4728 114.702 48.6851 115.344 51.0085C115.503 51.5735 115.75 52.039 116.008 52.4323C117.552 54.5713 119.202 55.5262 120.822 56.6107C121.211 56.8505 121.614 57.058 122.016 57.2353C127.244 59.292 132.085 58.3922 136.419 58.0036L136.854 57.899C136.975 57.8701 137.096 57.8414 137.217 57.8129C138.799 57.4403 140.454 57.2871 142.058 56.8469L142.24 56.7901C142.288 56.7743 142.337 56.7575 142.386 56.7405C142.546 56.6847 142.709 56.6195 142.869 56.5461C144.663 55.7132 145.636 54.1908 146.145 52.2141C146.221 51.8853 146.291 51.5649 146.305 51.2705C146.318 50.9749 146.268 50.7189 146.133 50.5074C145.998 50.2959 145.787 50.1429 145.513 50.0304C145.24 49.9192 144.92 49.8473 144.59 49.7775C144.59 49.7775 144.59 49.7775 144.59 49.7775C142.638 49.3573 141.114 49.364 140.189 49.5867C140.099 49.6097 140.01 49.6364 139.917 49.6689C139.889 49.6788 139.859 49.6892 139.829 49.6996L140.011 49.6429C138.409 50.1134 136.859 50.8778 135.256 51.4939C135.134 51.5411 135.011 51.5884 134.888 51.6361L135.323 51.5315C131.131 52.5757 126.941 53.4984 123.778 52.65C123.544 52.5831 123.321 52.506 123.114 52.4193C121.616 51.7446 120.021 50.8725 119.4 50.0884C119.303 49.9675 119.249 49.8724 119.228 49.8381C118.399 47.4555 117.838 45.5658 118.44 43.5942C118.457 43.5369 118.473 43.479 118.491 43.4204C119.383 40.3579 120.584 37.5835 122.775 36.3015C122.88 36.2381 122.984 36.1746 123.089 36.1112C126.289 34.1181 129.423 32.4346 132.203 33.2867C132.217 33.2905 132.231 33.2943 132.245 33.2981C133.643 33.6763 134.976 34.1496 135.525 34.7027C135.536 34.7133 135.547 34.724 135.558 34.7346C136.054 35.2268 136.487 35.7707 136.701 36.2084C136.809 36.4246 136.852 36.5975 136.862 36.6827C136.868 36.771 136.877 36.7817 136.837 36.8731C136.788 36.9561 136.739 37.0396 136.688 37.1229C135.064 39.8287 132.855 42.3468 130 42.6229C129.863 42.6367 129.731 42.6493 129.595 42.6616C128.953 42.7194 128.307 42.769 127.668 42.8069C126.272 42.8849 124.786 42.9377 123.602 42.7908Z" fill="white"/>
<path d="M158.89 34.6259C159.397 34.6259 159.884 34.4245 160.242 34.066C160.601 33.7075 160.802 33.2213 160.802 32.7143C160.802 32.2073 160.601 31.7211 160.242 31.3626C159.884 31.0041 159.397 30.8027 158.89 30.8027C158.89 30.8027 158.89 30.8027 158.89 30.8027C157.395 30.7958 155.871 31.0577 154.479 31.5051C153.007 31.9745 151.645 32.6288 150.373 33.371C150.222 33.4594 150.076 33.5448 149.925 33.6343C145.472 35.9208 142.43 41.4612 141.334 45.0697C141.285 45.202 141.242 45.3358 141.204 45.4704C140.418 49.1271 142.246 51.0713 143.309 52.5208C144.528 53.9817 145.825 55.0886 147.181 56.093C147.433 56.2778 147.693 56.445 147.953 56.5929C153.57 59.162 157.497 57.4142 161.343 56.3837C161.367 56.3759 161.391 56.3682 161.414 56.3605C164.571 55.4818 167.828 53.1857 170.185 51.1015C170.301 51.0026 170.419 50.9017 170.538 50.7986C172.592 49.202 173.192 46.3078 173.237 44.5464C173.334 42.6452 173.262 40.9494 173.265 39.2329C173.265 39.0957 173.261 38.9598 173.252 38.8244C172.816 34.5139 169.348 32.8533 167.463 31.4327L167.018 31.193C166.828 31.118 166.638 31.0478 166.445 30.9818C165.271 30.5784 163.981 30.4933 162.732 30.6659C161.873 30.7863 161.041 31.0114 160.209 31.376C160.174 31.3932 160.139 31.4103 160.103 31.4274C159.601 31.6711 159.187 32.2272 158.729 32.6271C158.646 32.7 158.583 32.826 158.545 32.951C158.508 33.0776 158.5 33.1929 158.53 33.298C158.56 33.403 158.627 33.4968 158.726 33.5849C158.823 33.6714 158.943 33.7452 159.052 33.7636C159.052 33.7636 159.052 33.7636 159.052 33.7636C159.652 33.8623 160.297 34.1171 160.853 34.0596C160.891 34.0556 160.93 34.0517 160.969 34.0478C161.504 34.0296 162.104 34.123 162.664 34.2678C163.49 34.4804 164.256 34.7927 165.042 35.0636C165.171 35.1082 165.3 35.156 165.429 35.2074L164.984 34.9677C167.214 36.4437 168.975 37.8891 168.932 39.0906C168.934 39.1354 168.935 39.1811 168.935 39.2285C168.902 42.5615 168.945 46.4768 167.498 47.0508C167.386 47.1352 167.276 47.2174 167.167 47.2973C164.755 49.0722 162.564 49.8802 159.731 50.4468C159.71 50.4515 159.69 50.4563 159.669 50.4611C156.497 51.2501 152.541 51.3901 151.359 50.6151C151.31 50.5874 151.269 50.5608 151.234 50.5363C150.169 49.7661 149.145 48.9281 148.385 48.1218C148.009 47.7253 147.707 47.3269 147.558 47.0718C147.396 46.798 147.457 46.8268 147.363 47.0736C147.356 47.0902 147.348 47.1066 147.34 47.1221C148.359 42.4588 148.585 39.0696 151.922 36.9035C152.049 36.8227 152.173 36.7475 152.301 36.6722C153.385 36.0394 154.505 35.5089 155.638 35.1482C156.719 34.8037 157.789 34.6228 158.89 34.6259Z" fill="white"/>
<path d="M176.273 42.8172C176.273 42.3911 176.104 41.9825 175.803 41.6813C175.501 41.38 175.093 41.2107 174.667 41.2107C174.241 41.2107 173.832 41.38 173.531 41.6813C173.229 41.9825 173.06 42.3911 173.06 42.8172C173.054 43.2414 173.241 43.6527 173.42 43.8786C173.599 44.1096 173.761 44.2261 173.882 44.3082C174.133 44.47 174.29 44.5217 174.43 44.5718C174.702 44.6612 174.894 44.6931 175.076 44.7221C175.435 44.7754 175.734 44.7914 176.033 44.8014C176.621 44.8182 177.171 44.7976 177.714 44.7647C177.829 44.7577 177.94 44.7501 178.055 44.7418C179.137 44.663 180.172 44.4183 181.143 44.0811C188.903 40.9205 193.739 34.6858 198.383 28.7844C198.653 28.4257 198.922 28.0639 199.182 27.7115C201.163 25.0031 202.924 21.8831 203.529 18.2277C204.211 14.5612 203.084 10.7716 202.355 7.97185C202.312 7.78994 202.27 7.60768 202.234 7.43283C201.478 3.90396 199.13 1.10618 196.447 -0.766214C196.195 -0.940806 195.939 -1.10943 195.671 -1.27265C194.275 -2.10953 192.79 -1.89934 191.925 -1.65587C191.007 -1.39539 190.337 -1.04881 189.73 -0.727054C189.359 -0.527234 189.019 -0.331348 188.712 -0.160325C181.501 6.47429 181.712 13.0963 179.167 19.547C179.083 19.8105 178.999 20.0745 178.914 20.3389C176.737 28.3429 176.931 35.622 176.617 42.8986C176.616 42.9343 176.615 42.97 176.614 43.0058L176.619 43.276C176.822 46.6495 177.079 50.0935 178.107 53.7273C178.426 54.8357 178.834 55.9495 179.318 57.0099L179.371 57.1203C179.411 57.2017 179.454 57.2869 179.502 57.3776C179.654 57.6621 179.866 57.9926 180.298 58.4257C180.707 58.8424 181.519 59.4318 182.431 59.5729C184.304 59.7807 184.851 58.8539 185.235 58.1345C185.347 57.8107 185.455 57.5017 185.523 57.2359C185.59 56.9676 185.605 56.7455 185.541 56.5401C185.477 56.3348 185.338 56.1608 185.13 55.9783C184.923 55.7983 184.659 55.6057 184.382 55.4032C184.382 55.4032 184.382 55.4032 184.382 55.4032C184.109 55.1564 183.887 54.9175 183.823 54.6836C183.753 54.4577 183.914 54.2006 184.366 54.1847C184.823 54.1665 185.26 54.4262 185.378 54.4651C185.516 54.5188 185.495 54.4292 185.424 54.2882C185.401 54.2432 185.374 54.1907 185.345 54.1322L185.397 54.2426C185.047 53.4729 184.76 52.693 184.52 51.8683C183.744 49.1848 183.445 46.0516 183.234 42.8828L183.239 43.153C183.24 43.1165 183.24 43.0801 183.241 43.0436C183.434 35.7401 182.601 28.1485 184.144 21.9299C184.221 21.6623 184.298 21.3959 184.376 21.1306C186.236 15.0196 188.265 6.92546 191.256 4.31694C191.6 4.11752 191.908 3.93451 192.195 3.77388C192.655 3.51427 193.08 3.30882 193.332 3.22797C193.454 3.18582 193.522 3.18118 193.477 3.17624C193.438 3.17341 193.26 3.13785 193.126 3.04787C193.3 3.1448 193.479 3.25285 193.655 3.36694C195.605 4.63187 197.146 6.45939 197.629 8.47687C197.682 8.69826 197.739 8.91923 197.796 9.13125C200.146 15.3336 199.386 20.2086 195.757 25.2663C195.515 25.6164 195.265 25.9748 195.015 26.3296C190.818 32.1437 186.229 38.4583 180.056 41.028C179.312 41.3016 178.558 41.4822 177.819 41.5372C177.717 41.5449 177.618 41.5517 177.516 41.5579C177.04 41.5872 176.564 41.6028 176.131 41.59C175.915 41.5836 175.707 41.5684 175.559 41.5457C175.489 41.5361 175.426 41.5184 175.456 41.5271C175.475 41.5359 175.514 41.5391 175.657 41.6304C175.726 41.6783 175.837 41.7524 175.977 41.933C176.117 42.1076 176.279 42.4578 176.273 42.8172Z" fill="white"/>
<path d="M185.84 52.4391C185.84 51.7172 185.554 51.0248 185.043 50.5143C184.533 50.0038 183.84 49.717 183.118 49.717C182.396 49.717 181.704 50.0038 181.193 50.5143C180.683 51.0248 180.396 51.7172 180.396 52.4391C180.416 53.3918 180.594 53.9191 180.765 54.4724C181.39 56.2821 182.307 57.6597 183.4 58.9439C183.611 59.1883 183.839 59.3957 184.053 59.564C187.266 61.56 189.124 61.2485 191.321 61.5531C193.443 61.7049 195.5 61.6892 197.573 61.408C197.6 61.4043 197.626 61.4003 197.653 61.3961L198.483 61.1659C199.423 60.7562 200.159 60.0411 200.798 59.5423C200.831 59.5164 200.863 59.4912 200.896 59.4652C201.959 58.639 202.886 57.6891 203.674 56.7938C203.965 56.4632 204.245 56.1319 204.517 55.7985C205 55.2059 205.228 54.4366 205.159 53.6667C205.089 52.8964 204.728 52.1886 204.147 51.6922C203.566 51.1958 202.811 50.9495 202.039 51.0007C201.268 51.0523 200.544 51.3972 200.033 51.9663C200.033 51.9663 200.033 51.9663 200.033 51.9663C199.782 52.2455 199.532 52.517 199.283 52.7772C198.592 53.498 197.949 54.093 197.248 54.5683C197.224 54.5848 197.201 54.6006 197.177 54.6166C196.698 54.9412 196.252 54.976 195.908 55.1047L196.739 54.8745C196.716 54.8771 196.694 54.88 196.671 54.8831C194.913 55.123 193.106 55.4036 191.361 55.5376C190.491 55.6029 189.632 55.6283 188.86 55.5695C188.477 55.5405 188.117 55.4885 187.834 55.4184C187.555 55.3561 187.348 55.2401 187.415 55.2813C187.432 55.2948 187.469 55.326 187.519 55.383C186.811 54.57 186.204 53.5741 185.933 52.7597C185.856 52.5527 185.829 52.2907 185.84 52.4391Z" fill="white"/>
<path d="M182.739 53.4013C182.739 53.8008 182.897 54.1839 183.18 54.4664C183.462 54.7489 183.846 54.9076 184.245 54.9076C184.645 54.9076 185.028 54.7489 185.31 54.4664C185.593 54.1839 185.751 53.8008 185.751 53.4013C185.729 53.5214 185.819 53.7536 185.417 54.2963C185.214 54.554 184.834 54.7459 184.597 54.7831C184.345 54.8314 184.192 54.807 184.1 54.7942C183.739 54.717 183.775 54.6852 183.743 54.6788C183.723 54.6663 183.79 54.7088 183.848 54.7532C184.249 55.0567 184.753 55.4972 185.227 55.9001L185.368 56.0076C185.44 56.0558 185.514 56.1032 185.588 56.1493C186.835 56.9307 188.221 57.3239 189.54 57.5035C189.607 57.5126 189.675 57.5215 189.742 57.5296C191.798 57.7715 193.753 57.1905 195.561 56.6061C195.77 56.5383 195.976 56.4704 196.185 56.4026C196.318 56.3582 196.436 56.2545 196.513 56.1256C196.59 55.996 196.62 55.8519 196.595 55.7135C196.57 55.5751 196.491 55.4505 196.374 55.3559C196.257 55.262 196.111 55.2057 195.97 55.2108C195.97 55.2108 195.97 55.2108 195.97 55.2108C195.759 55.2185 195.552 55.2207 195.342 55.2191C193.514 55.2038 191.749 54.8683 190.148 54.6084C190.095 54.5998 190.041 54.5907 189.988 54.5814C188.939 54.3982 187.976 54.0922 187.184 53.5945C187.137 53.5648 187.09 53.5344 187.043 53.5034L187.185 53.6109C186.694 53.195 186.252 52.7978 185.645 52.3351C185.534 52.2535 185.428 52.1728 185.224 52.0553C185.101 51.9983 185.041 51.9155 184.576 51.8193C184.46 51.8027 184.278 51.7765 184 51.8301C183.738 51.8721 183.332 52.0775 183.113 52.3553C182.677 52.9396 182.762 53.2271 182.739 53.4013Z" fill="white"/>
<path d="M183.332 55.3257C183.332 54.9702 183.191 54.6293 182.939 54.3779C182.688 54.1266 182.347 53.9854 181.991 53.9854C181.636 53.9854 181.295 54.1266 181.044 54.3779C180.792 54.6293 180.651 54.9702 180.651 55.3257C180.669 55.8246 180.796 56.0101 180.877 56.187C180.966 56.3557 181.046 56.4717 181.125 56.5792C181.733 57.3523 182.274 57.7551 182.847 58.2187L182.949 58.2914C183 58.3239 183.052 58.3563 183.103 58.3877C184.685 59.3466 186.491 59.5259 188.132 59.4471L188.256 59.4447C188.282 59.4405 188.307 59.4361 188.332 59.4316C189.248 59.2659 189.999 58.8232 190.697 58.4148C190.849 58.3256 191 58.2372 191.15 58.1516C191.236 58.1023 191.304 58.0122 191.343 57.9113C191.381 57.8099 191.387 57.706 191.355 57.6123C191.323 57.5185 191.255 57.4397 191.162 57.3828C191.07 57.3266 190.961 57.2969 190.863 57.3107C190.863 57.3107 190.863 57.3107 190.863 57.3107C190.692 57.335 190.52 57.3564 190.35 57.375C189.562 57.4622 188.799 57.4812 188.149 57.4626C188.13 57.4621 188.112 57.4615 188.094 57.4609L188.219 57.4585C186.815 57.2461 185.54 56.7368 184.5 56.0998C184.466 56.0788 184.431 56.0572 184.397 56.0356L184.5 56.1083C184.02 55.7339 183.501 55.2792 183.28 54.984C183.257 54.9545 183.244 54.9307 183.253 54.9472C183.257 54.9736 183.316 54.9984 183.332 55.3257Z" fill="white"/>
<path d="M209.838 42.5031C210.265 42.1412 210.53 41.6245 210.576 41.0666C210.623 40.5087 210.445 39.9554 210.083 39.5284C209.721 39.1013 209.205 38.8355 208.647 38.7894C208.089 38.7434 207.536 38.9208 207.109 39.2827C207.109 39.2827 207.109 39.2827 207.109 39.2827C206.196 40.1425 206.1 40.6968 205.872 41.2115C205.296 42.857 205.113 44.174 204.815 45.4891C204.793 45.5953 204.771 45.7011 204.752 45.8065C204.005 49.3003 205.508 52.9469 207.118 55.3601C207.275 55.6035 207.442 55.8378 207.618 56.0624C208.625 57.3446 209.78 58.4487 211.155 59.1981L211.464 59.3294C211.716 59.4273 211.97 59.5073 212.223 59.5699C213.899 59.9737 215.395 59.8162 216.719 59.552L216.593 59.5706C216.63 59.564 216.674 59.5568 216.726 59.5487C217.142 59.5084 218.143 58.944 218.488 58.2622C218.884 57.5868 218.948 56.8946 219.075 56.3511C219.096 56.2365 219.071 56.0739 219.034 55.9318C218.995 55.7878 218.948 55.6759 218.873 55.5883C218.799 55.5006 218.697 55.4348 218.561 55.3727C218.427 55.3125 218.271 55.2611 218.155 55.2623C218.155 55.2623 218.155 55.2623 218.155 55.2623C217.648 55.2525 217.05 55.058 216.708 54.7599C216.321 54.4646 216.5 54.077 216.096 54.1163C216.046 54.1201 215.987 54.1247 215.921 54.1308L215.795 54.1494C214.904 54.2602 214.1 54.2303 213.579 54.0957C213.499 54.0759 213.425 54.0576 213.354 54.0401L213.662 54.1714C212.851 53.8261 211.988 53.4528 211.412 52.8626C211.312 52.7603 211.218 52.6558 211.13 52.549C209.5 50.5341 208.503 48.6456 208.903 46.572C208.915 46.5088 208.928 46.4449 208.942 46.3804C209.236 45.0269 209.487 43.6249 209.827 42.6872C209.875 42.5564 209.926 42.4457 209.956 42.3912C209.979 42.3375 210.009 42.3479 209.838 42.5031Z" fill="white"/>
<path d="M213.689 34.6845C214.084 34.3473 214.328 33.867 214.369 33.3493C214.41 32.8317 214.243 32.319 213.906 31.924C213.569 31.5291 213.089 31.2843 212.571 31.2435C212.053 31.2027 211.541 31.3692 211.146 31.7064C211.146 31.7064 211.146 31.7064 211.146 31.7064C211.122 31.7271 211.105 31.7408 211.099 31.7464C211.088 31.764 211.099 31.7105 211.412 31.576C211.568 31.5141 211.847 31.4378 212.185 31.4707C212.522 31.4995 212.834 31.6472 213.006 31.7728C213.044 31.7993 213.075 31.8237 213.106 31.8488C213.402 32.1172 213.361 32.141 213.377 32.1493C213.378 32.1506 213.356 32.1083 213.331 32.0546C213.281 31.944 213.217 31.7832 213.148 31.6087C213.137 31.5801 213.126 31.5509 213.114 31.5212C212.925 31.0375 212.552 30.6486 212.077 30.4401C211.601 30.2315 211.062 30.2205 210.578 30.4093C210.095 30.5982 209.706 30.9715 209.497 31.447C209.289 31.9226 209.278 32.4616 209.466 32.9453C209.466 32.9453 209.466 32.9453 209.466 32.9453C209.478 32.975 209.49 33.0052 209.502 33.0359C209.576 33.2248 209.655 33.4275 209.765 33.6727C209.822 33.7966 209.885 33.93 209.982 34.1008C210.097 34.2772 210.162 34.4688 210.608 34.8645C210.652 34.9014 210.697 34.9363 210.75 34.9733C210.993 35.1493 211.387 35.3321 211.812 35.3689C212.237 35.4103 212.603 35.3159 212.84 35.2222C213.315 35.0227 213.466 34.8601 213.59 34.7678C213.632 34.7329 213.664 34.7052 213.689 34.6845Z" fill="white"/>
<path d="M212.417 33.1955C212.231 33.3542 212.045 33.513 211.857 33.3566C211.668 33.2003 211.482 32.724 211.29 32.2333" stroke="white" stroke-width="5" stroke-linecap="round"/>
<path d="M221.432 37.9493C221.034 37.9493 220.653 38.1074 220.371 38.3887C220.09 38.6701 219.932 39.0516 219.932 39.4495C219.932 39.8474 220.09 40.229 220.371 40.5104C220.653 40.7917 221.034 40.9498 221.432 40.9498C222.999 40.915 224.319 40.8045 225.741 40.7418C228.851 40.5882 231.971 40.4861 235.098 40.4062C235.327 40.4004 235.56 40.3979 235.797 40.3981C238.193 40.4265 240.873 40.2633 243.026 39.7073C243.147 39.6808 243.26 39.6602 243.312 39.6547C243.339 39.6292 243.413 39.7308 242.843 39.5734C242.795 39.5565 242.721 39.5262 242.627 39.4674C242.516 39.3968 242.381 39.291 242.246 39.1109C241.947 38.7342 241.917 38.1885 241.959 38.0097C242.046 37.6197 242.05 37.7574 241.977 37.8292C241.836 38.0229 241.538 38.3351 241.232 38.622C240.607 39.2098 239.878 39.8067 239.141 40.3991C237.657 41.5987 236.111 42.7299 234.537 44.163C234.476 44.2188 234.415 44.2749 234.352 44.3313C230.922 47.4334 226.645 48.8547 222.08 53.0484C221.959 53.1965 221.82 53.3664 221.667 53.582C221.404 54.0152 220.656 54.6771 220.771 56.2075C220.816 56.8031 221.046 57.4112 221.374 57.8522C223.475 60.1338 224.997 59.9221 226.446 60.3129C227.89 60.562 229.25 60.6695 230.593 60.7512C233.237 60.9163 235.972 60.8853 238.146 61.1236C238.442 61.1586 238.737 61.1887 239.032 61.2143C242.633 61.524 246.066 61.2021 249.266 60.867L249.091 60.881C249.197 60.8758 249.302 60.8702 249.408 60.8641C250.51 60.8012 251.626 60.6993 252.751 60.5409C253.325 60.46 253.902 60.3644 254.48 60.2511L254.547 60.2378C254.571 60.2324 254.596 60.227 254.62 60.2215C255.107 60.1193 255.72 59.5555 256.054 58.8985C256.402 58.2421 256.547 57.5208 256.753 56.9718C256.794 56.8521 256.796 56.6714 256.782 56.5114C256.767 56.349 256.737 56.2205 256.676 56.1122C256.614 56.0038 256.519 55.9124 256.388 55.8158C256.258 55.7217 256.102 55.6302 255.978 55.6037C255.978 55.6037 255.978 55.6037 255.978 55.6037C255.433 55.4791 254.815 55.1603 254.368 54.8346C253.907 54.5125 253.688 54.18 253.331 54.2557C253.314 54.2593 253.296 54.2631 253.277 54.2669L253.343 54.2536C252.878 54.3381 252.406 54.4102 251.929 54.4719C250.992 54.5928 250.033 54.6734 249.058 54.7291C248.964 54.7344 248.87 54.7396 248.776 54.7447L248.601 54.7587C245.349 55.1207 242.295 55.6061 239.399 55.4961C239.161 55.4874 238.924 55.4752 238.688 55.4594C235.718 55.3008 233.277 55.5009 230.76 55.4801C229.521 55.4768 228.299 55.444 227.187 55.3192C226.635 55.2571 226.107 55.1673 225.697 55.0529C225.288 54.9627 225.021 54.7239 225.222 54.9589C225.282 55.0448 225.323 55.2407 225.289 55.3914C225.305 55.7422 225.168 55.995 225.101 56.0453C225.03 56.1055 225.019 56.0429 225.072 55.9686C225.121 55.8955 225.203 55.7897 225.303 55.664C227.952 53.1352 233.124 50.8123 237.032 47.2892C237.111 47.2169 237.189 47.1443 237.266 47.0712C238.531 45.8873 240.103 44.6941 241.616 43.4485C242.38 42.819 243.147 42.182 243.923 41.4346C244.313 41.0518 244.703 40.6671 245.126 40.0828C245.334 39.7538 245.601 39.4767 245.774 38.6055C245.855 38.1945 245.791 37.3879 245.344 36.8162C245.136 36.5388 244.915 36.3575 244.694 36.2162C244.507 36.0982 244.324 36.0155 244.15 35.9532C243.294 35.6997 243.05 35.8377 242.781 35.8503C242.53 35.8876 242.349 35.9294 242.176 35.9698C239.855 36.602 237.963 37.2714 235.724 37.38C235.486 37.3918 235.252 37.4008 235.022 37.4067C231.879 37.487 228.737 37.5897 225.593 37.745C224.195 37.8077 222.683 37.9224 221.432 37.9493Z" fill="white"/>
<path d="M227.067 44.8374C226.582 44.8374 226.116 45.03 225.774 45.373C225.431 45.7159 225.238 46.181 225.238 46.666C225.238 47.151 225.431 47.6161 225.774 47.959C226.116 48.3019 226.582 48.4946 227.067 48.4946C227.083 48.4941 227.303 48.5058 227.45 48.5152C227.614 48.5252 227.78 48.5357 227.948 48.5459C229.439 48.6382 230.937 48.6981 232.428 48.7343C232.433 48.7344 232.438 48.7345 232.443 48.7346L232.661 48.7268C236.443 48.3664 240.203 47.6951 243.972 47.2691C243.984 47.2678 243.997 47.2663 244.009 47.2649L244.094 47.2577C244.808 47.1298 245.528 46.8117 246.155 46.4158C246.472 46.2178 246.762 46.0062 247.04 45.8155C247.158 45.7344 247.245 45.5963 247.289 45.4466C247.333 45.2961 247.329 45.1463 247.273 45.0151C247.217 44.884 247.111 44.7779 246.973 44.7052C246.834 44.6334 246.674 44.6009 246.534 44.6299C246.534 44.6299 246.534 44.6299 246.534 44.6299C246.203 44.6998 245.882 44.7468 245.574 44.7689C244.963 44.8144 244.391 44.7686 243.8 44.7946L243.886 44.7874C243.873 44.7872 243.86 44.787 243.848 44.7869C239.987 44.7557 236.135 44.7237 232.312 45.0863L232.531 45.0785C232.527 45.0784 232.522 45.0782 232.518 45.0781C231.062 45.0427 229.617 44.985 228.171 44.8955C228.007 44.8855 227.843 44.8752 227.674 44.8648C227.492 44.855 227.378 44.8422 227.067 44.8374Z" fill="white"/>
<path d="M271.369 38.7709C271.827 38.8265 272.288 38.6979 272.651 38.4134C273.014 38.1289 273.25 37.7118 273.305 37.2538C273.361 36.7958 273.232 36.3345 272.948 35.9713C272.663 35.6082 272.246 35.3729 271.788 35.3173C271.788 35.3173 271.788 35.3173 271.788 35.3173C270.882 35.2138 270.089 35.1983 269.273 35.1925C268.055 35.1898 266.85 35.2386 265.627 35.3513C265.486 35.3645 265.344 35.3781 265.203 35.3921C261.173 36.0234 258.801 38.4811 256.543 40.6092C256.45 40.7015 256.353 40.7962 256.259 40.8848C255.033 42.081 253.948 43.428 253.26 44.6506C253.236 44.6928 253.212 44.7349 253.189 44.7767C251.544 48.1116 252.98 51.2839 253.846 53.0931C253.916 53.2316 253.987 53.3678 254.061 53.5023C255.829 56.6767 258.466 58.7386 260.872 60.3321L262.056 60.8171C262.247 60.8661 262.44 60.9119 262.631 60.9541C266.341 61.6725 269.881 61.8215 274.001 59.9613C274.038 59.9427 274.075 59.9235 274.112 59.9037L274.383 59.7521C274.662 59.5719 275.105 59.2183 275.471 58.7663C276.452 57.5849 276.625 56.0851 276.167 54.8162C275.964 54.3828 275.772 53.9682 275.578 53.6348C275.38 53.2999 275.174 53.0612 274.904 52.9189C274.634 52.7766 274.32 52.7408 273.933 52.7673C273.548 52.7953 273.097 52.8707 272.625 52.9484C272.625 52.9484 272.625 52.9484 272.625 52.9484C271.448 53.0415 270.723 52.8374 270.495 52.627C270.387 52.5606 270.313 52.538 270.07 52.6743L270.341 52.5227C270.33 52.5272 270.32 52.5321 270.309 52.5375C268.992 53.2099 266.261 53.5836 264.132 53.2423C264.02 53.2255 263.908 53.207 263.798 53.1873L264.982 53.6723C262.882 52.4997 261.136 51.2499 260.12 49.849C260.077 49.7904 260.036 49.7318 259.995 49.673C259.556 49.0028 259.223 48.4125 259.048 48.0004C258.876 47.5708 258.82 47.4614 258.799 47.2514C258.813 47.2084 258.826 47.1657 258.84 47.1233C259.234 45.8915 259.341 44.7905 259.864 43.9318C259.929 43.8325 259.999 43.7312 260.067 43.6358C261.65 41.4256 263.618 39.1178 265.576 38.8548C265.7 38.8402 265.825 38.827 265.951 38.8153C267.04 38.7145 268.158 38.6688 269.261 38.6715C269.988 38.6748 270.743 38.6977 271.369 38.7709Z" fill="white"/>
<path d="M281.304 37.0441C281.304 36.258 280.991 35.5041 280.436 34.9483C279.88 34.3925 279.126 34.0802 278.34 34.0802C277.554 34.0802 276.8 34.3925 276.244 34.9483C275.688 35.5041 275.376 36.258 275.376 37.0441C275.376 37.6074 275.377 38.1916 275.381 38.7592C275.433 43.715 275.471 48.5843 276.053 53.7637C276.14 54.5038 276.43 55.2782 276.828 55.8817C278.35 57.9699 279.895 58.1768 281.06 58.5472C282.252 58.8496 283.331 59.0022 284.123 59.2672L284.571 59.4206C284.877 59.4681 285.181 59.5121 285.484 59.5549C287.632 59.8526 289.737 59.929 291.859 59.663L292.093 59.6277C292.184 59.6061 292.278 59.5817 292.376 59.5535C293.273 59.299 293.875 58.7068 294.247 58.2098C294.652 57.6742 294.952 57.1229 295.305 56.6317C295.426 56.4589 295.479 56.2104 295.476 55.9707C295.471 55.7293 295.41 55.5164 295.283 55.3491C295.157 55.1817 294.968 55.0652 294.737 54.9954C294.507 54.9274 294.254 54.9117 294.054 54.9816C294.054 54.9816 294.054 54.9816 294.054 54.9816C293.5 55.1754 292.895 55.3041 292.361 55.4019C292.106 55.4478 291.87 55.4826 291.694 55.4939C291.514 55.507 291.429 55.4868 291.322 55.5038C291.296 55.5079 291.266 55.5122 291.232 55.5169L291.466 55.4815C289.744 55.5635 287.952 55.4996 286.3 55.1077C286.068 55.0523 285.839 54.9862 285.614 54.9109L286.063 55.0643C284.866 54.4234 283.838 53.9656 282.99 53.4872C282.153 53.0651 281.533 52.4061 281.801 52.6555C281.857 52.7346 281.923 52.9078 281.934 53.0242C281.419 48.4895 281.353 43.5395 281.308 38.7255C281.305 38.1688 281.304 37.6005 281.304 37.0441Z" fill="white"/>
</svg>
